<!DOCTYPE html>
<html>
<head>
<title>FYC</title>
<center><h1>FYC://Rick.and.Morty.S06.1080p.HMAX.WEB-DL.DD5.1.H.264-STRiKES</h1></center>
<!--Link to torrent = |    |-->
<style>

/* Styling for the button */
.button {
background-color: transparent;
border: none;
color: #f1f1f1;
text-align: left;
font-size: 16px;
font-weight: bold;
font-family: 'Ubuntu', sans-serif;
cursor: pointer; 
width: 100%;
height: 50px;
margin-bottom: 5px;
}

/* Styling for the button when hovered */
.button:hover {
background-color: rgba(255, 255, 255, 0.1);
}

/* Styling for the button text in dark mode */
.button {
color: #f1f1f1;
}
</style>
</head>
<body>
<!-- Sidebar -->
<div class="sidebar">




<!-- Home -->
<button class="button" onclick="window.location.href='index.html'">Home</button>


<!-- Magnet -->
<button class="button" onclick="window.location.href='magnet:?xt=urn:btih:94A40BF24489D50197065477547E46CF624474FD&dn=Rick.and.Morty.S06.1080p.HMAX.WEB-DL.DD5.1.H.264-STRiKES&tr=udp%3A%2F%2Ftracker.opentrackr.org%3A1337%2Fannounce&tr=udp%3A%2F%2F9.rarbg.com%3A2810%2Fannounce&tr=udp%3A%2F%2Ftracker.openbittorrent.com%3A6969%2Fannounce&tr=udp%3A%2F%2Fopentracker.i2p.rocks%3A6969%2Fannounce&tr=https%3A%2F%2Fopentracker.i2p.rocks%3A443%2Fannounce&tr=http%3A%2F%2Ftracker.openbittorrent.com%3A80%2Fannounce&tr=udp%3A%2F%2Ftracker.torrent.eu.org%3A451%2Fannounce&tr=udp%3A%2F%2Fopen.stealth.si%3A80%2Fannounce&tr=udp%3A%2F%2Fipv4.tracker.harry.lu%3A80%2Fannounce&tr=udp%3A%2F%2Fexodus.desync.com%3A6969%2Fannounce&tr=udp%3A%2F%2Ftracker.opentrackr.org%3A1337%2Fannounce&tr=http%3A%2F%2Ftracker.openbittorrent.com%3A80%2Fannounce&tr=udp%3A%2F%2Fopentracker.i2p.rocks%3A6969%2Fannounce&tr=udp%3A%2F%2Ftracker.internetwarriors.net%3A1337%2Fannounce&tr=udp%3A%2F%2Ftracker.leechers-paradise.org%3A6969%2Fannounce&tr=udp%3A%2F%2Fcoppersurfer.tk%3A6969%2Fannounce&tr=udp%3A%2F%2Ftracker.zer0day.to%3A1337%2Fannounce'">Magnet</button>


<!-- Torrent -->
<button class="button" onclick="window.location.href='http://itorrents.org/torrent/94A40BF24489D50197065477547E46CF624474FD.torrent'">Torrent</button>


</div>

<!-- Content -->
<div style="margin-left: 20%;">
<link rel="shortcut icon" href="FYC Rewrite.ico" />
<style>
body {
background-image: url('With\ Credit\ Protogen.png');
background-repeat: no-repeat;
background-attachment: fixed;
background-size: cover;
}

/* Hide the photos by default */
/* DO NOT EDIT THE CODE IT WILL STOP WORKING */
.photo {
display: none;
}
</style>
</head>
</div>

<center><h1>Descption:</h1></center>
<!--Text Start-->
<p><h2>
<center>
Complete name : Rick.and.Morty.S06E01.Solaricks.1080p.HMAX.WEB-DL.DD5.1.H.264-STRiKES.mkv
Format : Matroska
Format version : Version 4
File size : 1.34 GiB
Duration : 22 min 25 s
Overall bit rate mode : Variable
Overall bit rate : 8 569 kb/s
Encoded date : UTC 2022-12-12 02:44:58
Writing application : mkvmerge v63.0.0 ('Everything') 64-bit
Writing library : libebml v1.4.2 + libmatroska v1.6.4

Video
ID : 1
Format : AVC
Format/Info : Advanced Video Codec
Format profile : High@L4
Format settings : CABAC / 4 Ref Frames
Format settings, CABAC : Yes
Format settings, Reference frames : 4 frames
Codec ID : V_MPEG4/ISO/AVC
Duration : 22 min 25 s
Bit rate mode : Variable
Bit rate : 8 250 kb/s
Maximum bit rate : 12.4 Mb/s
Width : 1 920 pixels
Height : 1 080 pixels
Display aspect ratio : 16:9
Frame rate mode : Constant
Frame rate : 23.976 (24000/1001) FPS
Color space : YUV
Chroma subsampling : 4:2:0
Bit depth : 8 bits
Scan type : Progressive
Bits/(Pixel*Frame) : 0.166
Stream size : 1.28 GiB (95%)
Writing library : x264 core 157 r2965 861cec4
Encoding settings : cabac=1 / ref=4 / deblock=1:0:0 / analyse=0x3:0x113 / me=hex / subme=7 / psy=1 / psy_rd=1.00:0.00 / mixed_ref=1 / me_range=16 / chroma_me=1 / trellis=1 / 8x8dct=1 / cqm=0 / deadzone=21,11 / fast_pskip=1 / chroma_qp_offset=-2 / threads=34 / lookahead_threads=5 / sliced_threads=0 / nr=0 / decimate=1 / interlaced=0 / bluray_compat=0 / constrained_intra=0 / bframes=3 / b_pyramid=2 / b_adapt=1 / b_bias=0 / direct=1 / weightb=1 / open_gop=0 / weightp=2 / keyint=96 / keyint_min=96 / scenecut=40 / intra_refresh=0 / rc_lookahead=40 / rc=2pass / mbtree=1 / bitrate=8250 / ratetol=1.0 / qcomp=0.60 / qpmin=0 / qpmax=69 / qpstep=4 / cplxblur=20.0 / qblur=0.5 / vbv_maxrate=12375 / vbv_bufsize=6187 / nal_hrd=vbr / filler=0 / ip_ratio=1.40 / aq=1:1.00
Language : English
Default : Yes
Forced : No
Color range : Limited
Color primaries : BT.709
Transfer characteristics : BT.709
Matrix coefficients : BT.709

Audio
ID : 2
Format : AC-3
Format/Info : Audio Coding 3
Commercial name : Dolby Digital
Codec ID : A_AC3
Duration : 22 min 25 s
Bit rate mode : Constant
Bit rate : 384 kb/s
Channel(s) : 6 channels
Channel layout : L R C LFE Ls Rs
Sampling rate : 48.0 kHz
Frame rate : 31.250 FPS (1536 SPF)
Compression mode : Lossy
Stream size : 61.6 MiB (4%)
Language : English
Service kind : Complete Main
Default : Yes
Forced : No

Text #1
ID : 3
Format : UTF-8
Codec ID : S_TEXT/UTF8
Codec ID/Info : UTF-8 Plain Text
Duration : 22 min 11 s
Bit rate : 102 b/s
Frame rate : 0.291 FPS
Count of elements : 388
Stream size : 16.7 KiB (0%)
Language : English
Default : No
Forced : No

Text #2
ID : 4
Format : UTF-8
Codec ID : S_TEXT/UTF8
Codec ID/Info : UTF-8 Plain Text
Duration : 22 min 15 s
Bit rate : 108 b/s
Frame rate : 0.440 FPS
Count of elements : 588
Stream size : 17.7 KiB (0%)
Language : English
Default : No
Forced : No

Text #3
ID : 5
Format : UTF-8
Codec ID : S_TEXT/UTF8
Codec ID/Info : UTF-8 Plain Text
Duration : 22 min 15 s
Bit rate : 157 b/s
Frame rate : 0.248 FPS
Count of elements : 331
Stream size : 25.7 KiB (0%)
Language : Bulgarian
Default : No
Forced : No

Text #4
ID : 6
Format : UTF-8
Codec ID : S_TEXT/UTF8
Codec ID/Info : UTF-8 Plain Text
Duration : 22 min 12 s
Bit rate : 98 b/s
Frame rate : 0.308 FPS
Count of elements : 411
Stream size : 16.0 KiB (0%)
Title : Czechia
Language : Czech
Default : No
Forced : No

Text #5
ID : 7
Format : UTF-8
Codec ID : S_TEXT/UTF8
Codec ID/Info : UTF-8 Plain Text
Duration : 22 min 16 s
Bit rate : 80 b/s
Frame rate : 0.220 FPS
Count of elements : 294
Stream size : 13.1 KiB (0%)
Title : Denmark
Language : Danish
Default : No
Forced : No

Text #6
ID : 8
Format : UTF-8
Codec ID : S_TEXT/UTF8
Codec ID/Info : UTF-8 Plain Text
Duration : 22 min 12 s
Bit rate : 99 b/s
Frame rate : 0.339 FPS
Count of elements : 452
Stream size : 16.1 KiB (0%)
Title : Latin America
Language : Spanish
Default : No
Forced : No

Text #7
ID : 9
Format : UTF-8
Codec ID : S_TEXT/UTF8
Codec ID/Info : UTF-8 Plain Text
Duration : 21 min 35 s
Bit rate : 1 b/s
Frame rate : 0.006 FPS
Count of elements : 8
Stream size : 221 Bytes (0%)
Title : Latin America
Language : Spanish
Default : No
Forced : No

Text #8
ID : 10
Format : UTF-8
Codec ID : S_TEXT/UTF8
Codec ID/Info : UTF-8 Plain Text
Duration : 9 min 44 s
Bit rate : 2 b/s
Frame rate : 0.009 FPS
Count of elements : 5
Stream size : 207 Bytes (0%)
Language : Spanish
Default : No
Forced : No

Text #9
ID : 11
Format : UTF-8
Codec ID : S_TEXT/UTF8
Codec ID/Info : UTF-8 Plain Text
Duration : 22 min 10 s
Bit rate : 105 b/s
Frame rate : 0.344 FPS
Count of elements : 458
Stream size : 17.2 KiB (0%)
Language : Spanish
Default : No
Forced : No

Text #10
ID : 12
Format : UTF-8
Codec ID : S_TEXT/UTF8
Codec ID/Info : UTF-8 Plain Text
Duration : 22 min 16 s
Bit rate : 85 b/s
Frame rate : 0.266 FPS
Count of elements : 356
Stream size : 14.0 KiB (0%)
Language : Finnish
Default : No
Forced : No

Text #11
ID : 13
Format : UTF-8
Codec ID : S_TEXT/UTF8
Codec ID/Info : UTF-8 Plain Text
Duration : 22 min 13 s
Bit rate : 89 b/s
Frame rate : 0.241 FPS
Count of elements : 321
Stream size : 14.7 KiB (0%)
Language : Croatian
Default : No
Forced : No

Text #12
ID : 14
Format : UTF-8
Codec ID : S_TEXT/UTF8
Codec ID/Info : UTF-8 Plain Text
Duration : 22 min 17 s
Bit rate : 95 b/s
Frame rate : 0.300 FPS
Count of elements : 401
Stream size : 15.6 KiB (0%)
Language : Hungarian
Default : No
Forced : No

Text #13
ID : 15
Format : UTF-8
Codec ID : S_TEXT/UTF8
Codec ID/Info : UTF-8 Plain Text
Duration : 22 min 13 s
Bit rate : 149 b/s
Frame rate : 0.241 FPS
Count of elements : 321
Stream size : 24.4 KiB (0%)
Language : Macedonian
Default : No
Forced : No

Text #14
ID : 16
Format : UTF-8
Codec ID : S_TEXT/UTF8
Codec ID/Info : UTF-8 Plain Text
Duration : 22 min 15 s
Bit rate : 87 b/s
Frame rate : 0.260 FPS
Count of elements : 347
Stream size : 14.2 KiB (0%)
Title : Norway
Language : Norwegian Bokmal
Default : No
Forced : No

Text #15
ID : 17
Format : UTF-8
Codec ID : S_TEXT/UTF8
Codec ID/Info : UTF-8 Plain Text
Duration : 22 min 14 s
Bit rate : 85 b/s
Frame rate : 0.256 FPS
Count of elements : 342
Stream size : 13.9 KiB (0%)
Language : Dutch
Default : No
Forced : No

Text #16
ID : 18
Format : UTF-8
Codec ID : S_TEXT/UTF8
Codec ID/Info : UTF-8 Plain Text
Duration : 22 min 14 s
Bit rate : 89 b/s
Frame rate : 0.299 FPS
Count of elements : 399
Stream size : 14.5 KiB (0%)
Language : Polish
Default : No
Forced : No

Text #17
ID : 19
Format : UTF-8
Codec ID : S_TEXT/UTF8
Codec ID/Info : UTF-8 Plain Text
Duration : 22 min 12 s
Bit rate : 101 b/s
Frame rate : 0.269 FPS
Count of elements : 358
Stream size : 16.5 KiB (0%)
Title : Brazil
Language : Portuguese
Default : No
Forced : No

Text #18
ID : 20
Format : UTF-8
Codec ID : S_TEXT/UTF8
Codec ID/Info : UTF-8 Plain Text
Duration : 21 min 35 s
Bit rate : 1 b/s
Frame rate : 0.007 FPS
Count of elements : 9
Stream size : 296 Bytes (0%)
Title : Brazil
Language : Portuguese
Default : No
Forced : No

Text #19
ID : 21
Format : UTF-8
Codec ID : S_TEXT/UTF8
Codec ID/Info : UTF-8 Plain Text
Duration : 22 min 15 s
Bit rate : 88 b/s
Frame rate : 0.261 FPS
Count of elements : 348
Stream size : 14.5 KiB (0%)
Language : Portuguese
Default : No
Forced : No

Text #20
ID : 22
Format : UTF-8
Codec ID : S_TEXT/UTF8
Codec ID/Info : UTF-8 Plain Text
Duration : 22 min 12 s
Bit rate : 101 b/s
Frame rate : 0.279 FPS
Count of elements : 372
Stream size : 16.5 KiB (0%)
Language : Romanian
Default : No
Forced : No

Text #21
ID : 23
Format : UTF-8
Codec ID : S_TEXT/UTF8
Codec ID/Info : UTF-8 Plain Text
Duration : 22 min 13 s
Bit rate : 85 b/s
Frame rate : 0.241 FPS
Count of elements : 321
Stream size : 14.0 KiB (0%)
Title : Slovenia
Language : Slovenian
Default : No
Forced : No

Text #22
ID : 24
Format : UTF-8
Codec ID : S_TEXT/UTF8
Codec ID/Info : UTF-8 Plain Text
Duration : 22 min 13 s
Bit rate : 88 b/s
Frame rate : 0.241 FPS
Count of elements : 321
Stream size : 14.4 KiB (0%)
Title : Latin, Serbia
Language : Serbian
Default : No
Forced : No

Text #23
ID : 25
Format : UTF-8
Codec ID : S_TEXT/UTF8
Codec ID/Info : UTF-8 Plain Text
Duration : 22 min 15 s
Bit rate : 90 b/s
Frame rate : 0.256 FPS
Count of elements : 342
Stream size : 14.8 KiB (0%)
Title : Sweden
Language : Swedish
Default : No
Forced : No

ReportBy : MediaInfoLib - v22.09 
</center>
</h2></p>
<!--Text End-->

<!--Notes-->
<center><h1>Notes:</h1></center>
<p><h2>
<center>
There is no note for this torrent
</center>
</h2></p>

<!-- Import the Ubuntu Bold font -->
<link rel="stylesheet" href="https://fonts.googleapis.com/css2?family=Ubuntu:wght@700&display=swap">
</body>
</html>
